<svg width="40" height="40" viewBox="0 0 40 40" fill="none" xmlns="http://www.w3.org/2000/svg">
<g clip-path="url(#clip0_4115_189)" filter="url(#filter0_d_4115_189)">
<path fill-rule="evenodd" clip-rule="evenodd" d="M4 16C4 24.8202 11.1765 32 20 32C28.8202 32 36 24.8202 36 16C36 7.17982 28.8202 0 20 0C11.1798 0 4 7.17982 4 16ZM9.94191 4.96936C12.5978 2.54552 16.1292 1.06554 20 1.06554C23.8696 1.06554 27.4 2.54462 30.0557 4.96715L28.8681 6.1547C26.5199 4.03823 23.4105 2.75 20 2.75C16.5883 2.75 13.4779 4.03912 11.1294 6.15689L9.94191 4.96936ZM8.96751 5.94395C6.54476 8.59964 5.06554 12.1302 5.06554 16C5.06554 19.8694 6.54451 23.3997 8.96688 26.0553L10.1544 24.8678C8.03812 22.5196 6.75 19.4104 6.75 16C6.75 12.5893 8.03837 9.47974 10.155 7.13149L8.96751 5.94395ZM9.94122 27.03C12.5972 29.4542 16.1289 30.9344 20 30.9344C23.8692 30.9344 27.3992 29.4557 30.0548 27.0337L28.8672 25.8461C26.5191 27.9621 23.4101 29.25 20 29.25C16.5879 29.25 13.4773 27.9606 11.1287 25.8425L9.94122 27.03ZM34.9345 16C34.9345 19.8714 33.454 23.4033 31.0295 26.0593L29.842 24.8718C31.9604 22.5232 33.25 19.4123 33.25 16C33.25 12.5881 31.9607 9.47761 29.8428 7.12907L31.0303 5.94154C33.4543 8.5975 34.9345 12.129 34.9345 16Z" fill="#478BF9"/>
<path d="M13.875 10.7524C13.875 10.2678 14.2777 9.875 14.7746 9.875H25.2254C25.7223 9.875 26.125 10.2678 26.125 10.7524V21.2476C26.125 21.7322 25.7223 22.125 25.2254 22.125H14.7746C14.2777 22.125 13.875 21.7322 13.875 21.2476V10.7524ZM17.6595 20.1298V14.5981H15.8212V20.1298H17.6595ZM16.7407 13.8425C17.3816 13.8425 17.7805 13.4183 17.7805 12.887C17.769 12.3441 17.3823 11.9315 16.753 11.9315C16.1236 11.9315 15.7125 12.3449 15.7125 12.887C15.7125 13.4183 16.1114 13.8425 16.7285 13.8425H16.7407ZM20.4984 20.1298V17.0405C20.4984 16.8751 20.5107 16.7097 20.5597 16.5918C20.6921 16.2618 20.9945 15.9196 21.5029 15.9196C22.1683 15.9196 22.4339 16.4265 22.4339 17.1706V20.1298H24.2722V16.957C24.2722 15.2573 23.3657 14.4672 22.156 14.4672C21.1806 14.4672 20.7434 15.0032 20.4984 15.3806V15.3998H20.4862C20.4902 15.3934 20.4943 15.387 20.4984 15.3806V14.5981H18.6609C18.6839 15.1172 18.6609 20.1298 18.6609 20.1298H20.4984Z" fill="#110A1D"/>
</g>
<defs>
<filter id="filter0_d_4115_189" x="0" y="0" width="40" height="40" filterUnits="userSpaceOnUse" color-interpolation-filters="sRGB">
<feFlood flood-opacity="0" result="BackgroundImageFix"/>
<feColorMatrix in="SourceAlpha" type="matrix" values="0 0 0 0 0 0 0 0 0 0 0 0 0 0 0 0 0 0 127 0" result="hardAlpha"/>
<feOffset dy="4"/>
<feGaussianBlur stdDeviation="2"/>
<feComposite in2="hardAlpha" operator="out"/>
<feColorMatrix type="matrix" values="0 0 0 0 0 0 0 0 0 0 0 0 0 0 0 0 0 0 0.25 0"/>
<feBlend mode="normal" in2="BackgroundImageFix" result="effect1_dropShadow_4115_189"/>
<feBlend mode="normal" in="SourceGraphic" in2="effect1_dropShadow_4115_189" result="shape"/>
</filter>
<clipPath id="clip0_4115_189">
<rect width="32" height="32" fill="white" transform="translate(4)"/>
</clipPath>
</defs>
</svg>
