<svg width="222" height="100" viewBox="0 0 222 100" fill="none" xmlns="http://www.w3.org/2000/svg">
<path d="M50.4979 99.5586C23.1752 99.5586 0.942382 77.3257 0.942381 50.003C0.942379 22.6804 23.1752 0.447539 50.4979 0.447538C77.8205 0.447537 100.053 22.6804 100.053 50.003C100.053 77.3257 77.8205 99.5586 50.4979 99.5586ZM50.4979 4.01769C25.1424 4.01769 4.51253 24.6476 4.51253 50.003C4.51254 75.3585 25.1424 95.9884 50.4979 95.9884C75.8533 95.9884 96.4832 75.3585 96.4832 50.003C96.4832 24.6476 75.8533 4.01769 50.4979 4.01769Z" fill="#478BF9"/>
<path d="M171.644 99.5613C170.655 99.5613 169.864 98.7598 169.864 97.7814C169.864 96.8029 170.666 96.0015 171.644 96.0015C196.999 96.0015 217.629 75.3715 217.629 50.0161C217.629 24.6607 196.999 4.03078 171.644 4.03078C170.655 4.03078 169.864 3.22929 169.864 2.25088C169.864 1.27246 170.665 0.471039 171.644 0.471039C198.967 0.471038 221.199 22.7039 221.199 50.0265C221.199 77.3492 198.967 99.582 171.644 99.582L171.644 99.5613Z" fill="#478BF9"/>
<path d="M49.3009 1.96208L49.3009 23.6641L53.5788 23.6641L53.5788 1.96208L49.3009 1.96208Z" fill="#478BF9"/>
<path d="M49.3009 76.6847L49.3009 98.3867L53.5788 98.3867L53.5788 76.6847L49.3009 76.6847Z" fill="#478BF9"/>
<path d="M78.2786 47.6947L78.2786 51.9727L99.9806 51.9727L99.9806 47.6947L78.2786 47.6947Z" fill="#478BF9"/>
<path d="M2.89917 47.6947L2.89917 51.9727L24.6012 51.9727L24.6012 47.6947L2.89917 47.6947Z" fill="#478BF9"/>
<path d="M24.2889 24.3196C9.44618 39.1623 9.44618 63.2375 24.2889 78.0906C39.1316 92.9333 63.2068 92.9333 78.0599 78.0906C92.9027 63.2479 92.9027 39.1727 78.0599 24.3196C63.2172 9.47686 39.142 9.47686 24.2889 24.3196ZM27.5052 43.8566C28.8479 39.5266 31.3564 35.6442 34.7704 32.6257L35.4261 32.0428L35.6239 32.8963C36.1548 35.155 36.5919 37.5698 36.9146 40.0678L36.977 40.5154L36.5399 40.6403C35.1139 41.0567 33.7399 41.5459 32.4701 42.108C30.8775 42.8053 29.4828 43.586 28.3066 44.4395L27.0264 45.3763L27.4948 43.8566L27.5052 43.8566ZM49.9878 61.2286L49.4465 61.2078C46.1574 61.1037 43.0141 60.7394 40.1205 60.1149L39.6625 60.0212L39.7041 59.5528C40.1829 54.0779 40.1621 48.2282 39.652 42.7845L39.6104 42.3161L40.0684 42.212C42.9932 41.5771 46.147 41.2128 49.4465 41.1191L49.9878 41.1191L49.9878 61.2182L49.9878 61.2286ZM52.4026 41.1191L52.9439 41.1191C56.2434 41.2336 59.3972 41.5979 62.322 42.2329L62.78 42.3369L62.7384 42.8053C62.2284 48.249 62.218 54.0987 62.6864 59.5736L62.728 60.042L62.27 60.1357C59.3764 60.7602 56.2434 61.1245 52.9439 61.2286L52.4026 61.2495L52.4026 41.14L52.4026 41.1191ZM26.5996 51.1738C26.5996 48.1449 30.4404 45.064 36.6335 43.1384L37.2581 42.9406L37.3101 43.5964C37.5287 46.1569 37.6432 48.8007 37.6432 51.4549C37.6432 53.9217 37.5495 56.3782 37.3517 58.7722L37.2997 59.4279L36.6648 59.2302C30.4508 57.3046 26.5892 54.2132 26.5892 51.1738L26.5996 51.1738ZM34.8849 69.8262C31.4188 66.7868 28.8687 62.8732 27.5156 58.4911L27.0472 56.961L28.3379 57.9083C29.5036 58.7618 30.9088 59.5528 32.4909 60.2398C33.7399 60.7914 35.1347 61.2911 36.6335 61.7282L37.0603 61.8531L37.0083 62.3007C36.696 64.8196 36.2797 67.2552 35.7488 69.5451L35.551 70.409L34.8849 69.8262ZM49.4258 75.9048C45.3664 75.6133 41.4111 74.3123 37.9659 72.1368L37.6432 71.9287L37.7368 71.554C38.4134 68.8894 38.9547 66.0166 39.3398 62.9981L39.4127 62.436L39.9747 62.5505C42.9932 63.1751 46.1887 63.5289 49.4778 63.6226L49.9878 63.6226L49.9878 75.936L49.4258 75.8943L49.4258 75.9048ZM64.7473 71.9287L64.4246 72.1368C60.9897 74.3123 57.024 75.6133 52.9647 75.9048L52.4026 75.9464L52.4026 63.6434L52.9126 63.6434C56.2018 63.5393 59.4076 63.175 62.4157 62.5609L62.9778 62.4464L63.0506 63.0085C63.4358 66.0166 63.977 68.8998 64.6536 71.5644L64.7473 71.9391L64.7473 71.9287ZM74.8853 58.4911C73.5321 62.8732 70.9821 66.7868 67.516 69.8262L66.8498 70.409L66.6521 69.5451C66.1316 67.2552 65.7048 64.8196 65.3926 62.3007L65.3406 61.8531L65.7673 61.7282C67.2662 61.291 68.6609 60.7914 69.91 60.2398C71.5025 59.5424 72.8972 58.7618 74.0734 57.9083L75.3641 56.961L74.8957 58.4911L74.8853 58.4911ZM75.7908 51.1738C75.7908 54.2132 71.9292 57.3046 65.7153 59.2302L65.0803 59.4279L65.0283 58.7722C64.6328 53.8073 64.6432 48.5197 65.0699 43.5964L65.122 42.9406L65.7465 43.1384C71.9292 45.0744 75.7804 48.1553 75.7804 51.1738L75.7908 51.1738ZM67.62 32.6257C71.0341 35.6442 73.5425 39.537 74.8853 43.8566L75.3537 45.3763L74.0734 44.4395C72.9076 43.586 71.5025 42.8053 69.91 42.108C68.6297 41.5563 67.2661 41.0567 65.8401 40.6403L65.403 40.5154L65.4655 40.0678C65.7881 37.5698 66.2253 35.155 66.7561 32.8963L66.9643 32.0428L67.62 32.6257ZM52.9647 26.4533C57.0657 26.7448 61.073 28.0667 64.5495 30.2941L64.8722 30.5023L64.7785 30.877C64.0811 33.5104 63.5294 36.3728 63.1235 39.3705L63.0506 39.9325L62.499 39.818C59.4805 39.1935 56.2642 38.8292 52.9231 38.7356L52.413 38.7356L52.413 26.4221L52.9751 26.4638L52.9647 26.4533ZM49.9878 38.7147L49.4778 38.7147C46.1366 38.8188 42.9099 39.1831 39.9018 39.8076L39.3502 39.9221L39.2774 39.3601C38.8714 36.3624 38.3197 33.5104 37.6224 30.8666L37.5287 30.4919L37.8514 30.2838C41.3279 28.0563 45.3248 26.724 49.4362 26.443L49.9982 26.4013L49.9982 38.7043L49.9878 38.7147Z" fill="#478BF9"/>
<path d="M172.393 99.6208L52.7982 99.6208C51.8094 99.6208 51.0183 98.8194 51.0183 97.841C51.0183 96.8625 51.8198 96.0611 52.7982 96.0611L172.393 96.061C173.382 96.061 174.173 96.8625 174.173 97.8409C174.173 98.8194 173.372 99.6208 172.393 99.6208Z" fill="#478BF9"/>
<path d="M172.664 4.07031L53.0688 4.07031C52.08 4.07031 51.2889 3.26889 51.2889 2.29048C51.2889 1.31206 52.0904 0.510577 53.0688 0.510577L172.664 0.510572C173.653 0.510572 174.444 1.31206 174.444 2.29047C174.444 3.26888 173.642 4.07031 172.664 4.07031Z" fill="#478BF9"/>
</svg>
